<?xml version="1.0" standalone="no"?>
<!DOCTYPE svg PUBLIC "-//W3C//DTD SVG 20010904//EN"
 "http://www.w3.org/TR/2001/REC-SVG-20010904/DTD/svg10.dtd">
<svg version="1.0" xmlns="http://www.w3.org/2000/svg"
 width="512.000000pt" height="512.000000pt" viewBox="0 0 512.000000 512.000000"
 preserveAspectRatio="xMidYMid meet">
<metadata>
Created by potrace 1.14, written by Peter Selinger 2001-2017
</metadata>
<g transform="translate(0.000000,512.000000) scale(0.100000,-0.100000)"
fill="#000000" stroke="none">
<path d="M4321 4898 c-133 -23 -292 -104 -371 -188 -23 -24 -93 -104 -110
-126 -9 -10 -71 -86 -138 -168 -68 -82 -139 -167 -157 -190 -54 -66 -305 -369
-323 -391 -9 -11 -80 -97 -157 -190 -191 -233 -327 -397 -343 -413 -7 -8 -25
-30 -40 -50 -15 -21 -35 -46 -45 -57 -10 -11 -59 -70 -110 -131 l-91 -112 -76
75 c-171 166 -334 236 -550 236 -164 0 -304 -44 -433 -137 -34 -24 -168 -150
-297 -280 -129 -130 -250 -243 -269 -252 -69 -33 -162 0 -195 70 -30 63 -19
106 47 199 42 59 23 155 -39 201 -37 26 -106 32 -146 13 -35 -17 -284 -264
-335 -332 -125 -169 -171 -410 -118 -621 25 -98 63 -180 119 -259 61 -85 1393
-1411 1466 -1459 130 -87 275 -127 435 -122 120 4 203 24 312 78 109 53 171
108 559 499 379 383 416 431 466 606 30 102 32 294 4 393 -38 140 -116 264
-244 388 -38 37 -43 45 -31 57 15 14 239 198 309 255 25 19 60 49 80 66 19 16
125 104 235 195 110 90 209 172 220 181 27 22 320 264 374 308 23 19 57 47 74
61 92 77 295 245 388 321 135 110 198 181 249 279 195 375 11 818 -402 968
-29 11 -69 23 -88 27 -49 10 -177 12 -229 2z m141 -596 c110 -69 90 -229 -34
-267 -143 -43 -249 129 -149 239 51 56 121 66 183 28z"/>
<path d="M1214 4389 c-266 -87 -388 -389 -258 -640 67 -132 218 -226 374 -233
220 -11 420 148 460 365 41 222 -95 444 -312 510 -72 22 -195 21 -264 -2z"/>
<path d="M4375 2282 c-167 -80 -224 -284 -122 -435 34 -50 111 -109 162 -122
203 -54 394 101 380 307 -10 156 -125 267 -285 275 -67 4 -82 1 -135 -25z"/>
<path d="M3684 1096 c-17 -8 -42 -29 -55 -47 -21 -30 -24 -48 -27 -136 l-4
-101 -87 0 c-103 0 -148 -16 -181 -61 -53 -76 -27 -181 55 -221 24 -12 50 -20
57 -19 7 1 46 1 86 0 l72 -1 0 -87 c0 -66 5 -96 20 -128 48 -100 187 -110 250
-18 22 32 25 50 28 135 l4 98 76 1 c43 0 88 2 101 5 98 18 151 144 96 228 -33
50 -73 65 -177 67 l-96 1 -4 102 c-3 87 -7 106 -27 135 -40 56 -119 76 -187
47z"/>
</g>
</svg>
